<svg width="88" height="52" viewBox="0 0 88 52" fill="none" xmlns="http://www.w3.org/2000/svg">
<path fill-rule="evenodd" clip-rule="evenodd" d="M67.9638 23.3699H68.8423C69.0724 23.3699 69.292 23.5895 69.5012 24.0288V24.2798C69.5012 24.7399 68.7482 26.7584 67.2422 30.3351V31.4646C69.1538 30.4786 71.2589 29.1248 73.5577 27.4032C74.9756 24.6307 76.0079 23.2444 76.6546 23.2444H76.9056C77.2193 23.3908 77.4494 23.464 77.5958 23.464V23.715C77.5958 24.0497 76.8428 25.6289 75.3369 28.4526C77.7004 26.0472 79.6456 24.8445 81.1726 24.8445H81.4235C82.7622 25.1164 83.4315 25.4929 83.4315 25.974V27.1035C83.4315 27.9401 82.6785 29.1428 81.1726 30.7116H80.9843V30.8998H81.1726C81.3608 30.8998 83.0237 29.7076 86.1611 27.3231H87.5416V28.4526C83.5466 31.3809 80.8274 33.0333 79.3842 33.4098L77.1252 33.6294H73.7367C71.2686 37.4362 68.0998 43.4602 64.2302 51.7013H63.1007C62.8288 51.7013 62.6928 51.5444 62.6928 51.2306C62.9483 49.9732 66.0736 43.0588 72.069 30.4876C70.3716 31.7105 68.6999 32.5695 67.0539 33.0647H66.3637C65.4434 33.0647 64.9832 32.615 64.9832 31.7156C64.9832 31.1499 65.2279 30.1866 65.7174 28.8255C65.6229 28.8481 65.5246 28.8702 65.4224 28.8918H64.5126C63.8014 28.8918 63.0484 28.6722 62.2536 28.233C58.0494 38.4611 55.3407 43.5752 54.1275 43.5752H52.5588C51.9731 43.5752 51.5967 42.4457 51.4293 40.1867C51.8477 30.9835 52.5274 26.3819 53.4687 26.3819H54.1275C54.4413 26.3819 54.5982 26.6224 54.5982 27.1035C53.8452 33.3784 53.4687 37.6558 53.4687 39.9357V41.7868C54.2426 41.4313 56.3447 37.2061 59.775 29.1115C59.775 28.9232 60.0887 28.1702 60.7162 26.8525L60.4652 25.723C60.9045 24.6562 61.5843 24.1229 62.5046 24.1229H62.9752C63.2471 24.1856 63.3831 24.3425 63.3831 24.5935C63.2367 25.472 63.1635 26.225 63.1635 26.8525C64.042 27.4591 64.6485 27.7623 64.9832 27.7623L66.1127 27.1035H66.3807C66.6976 26.323 67.0685 25.455 67.4932 24.4994C67.3258 24.1856 67.2422 23.9555 67.2422 23.8091L67.9638 23.3699ZM79.8548 29.5821C79.8548 30.3978 78.1187 31.2972 74.6466 32.2803C77.4076 28.4735 79.5829 26.4446 81.1726 26.1936L81.6432 26.3819C81.6432 27.2603 81.0471 28.3271 79.8548 29.5821Z" fill="black"/>
<ellipse cx="43.7811" cy="33.933" rx="1.7671" ry="1.7671" fill="#DE5783"/>
<path fill-rule="evenodd" clip-rule="evenodd" d="M73.3603 12.9849H74.7408V14.334C73.2976 14.7732 72.3877 14.9928 72.0112 14.9928H71.3523C71.0386 14.9928 70.8817 14.836 70.8817 14.5222C70.8817 14.3131 71.7079 13.8006 73.3603 12.9849Z" fill="#7FDDEF"/>
<path fill-rule="evenodd" clip-rule="evenodd" d="M12.9934 9.19262C10.5543 9.35732 10.0001 9.39474 8.61502 8.26951L5.09271 5.47389C4.73346 5.11238 4.91364 4.66144 5.81558 4.57199L30.5473 2.76813C32.6227 2.58738 33.7056 3.31003 34.5184 3.94101L38.7602 7.00755C38.9408 7.09736 39.3914 7.63779 38.8496 7.63779L13.3082 9.17144C13.1999 9.17867 13.095 9.18576 12.9934 9.19262ZM10.1485 41.0958V14.2218C10.1485 13.0497 10.5096 12.5082 11.592 12.4172L40.9254 10.7043C41.9203 10.6141 42.3709 11.2459 42.3709 12.4172V30.214C42.8092 30.0477 43.2845 29.9567 43.7811 29.9567C44.3731 29.9567 44.9349 30.0861 45.4397 30.3181V9.71183C45.4397 8.68633 45.034 8.39008 43.8378 7.5168C43.772 7.46876 43.7038 7.41896 43.6331 7.3672L35.4214 1.59563C33.4359 0.153295 32.6231 -0.0281992 29.4641 0.242748L3.73905 2.13716C1.66472 2.3168 0.941833 3.67006 0.941833 5.29242V33.4295C0.941833 34.6937 1.39243 35.7741 2.47603 37.2183L8.52328 45.0643C9.51658 46.3276 10.4193 46.598 12.316 46.5075L42.1903 44.7035C44.717 44.524 45.4397 43.3507 45.4397 41.3669V37.5472C44.9349 37.7793 44.3731 37.9087 43.7811 37.9087C43.2845 37.9087 42.8092 37.8176 42.3709 37.6513V39.1108C42.3709 40.2841 42.1899 41.2775 40.5646 41.3669L12.4947 42.991C10.8702 43.0804 10.1485 42.5401 10.1485 41.0958ZM37.0451 17.3789C37.859 17.2876 38.039 16.4759 37.859 15.6634L31.6294 16.026C30.7267 16.1155 30.0057 16.8367 30.1859 17.8299L32.5332 18.0994V30.5452L23.3265 16.4763L16.6471 16.9265C15.3826 17.0174 14.932 18.1888 15.1129 19.0013L17.3688 19.1821V36.9485L15.744 37.3988C15.1125 37.5793 14.9316 38.4804 15.1125 38.8416L21.3388 38.4804C23.5974 38.4804 23.5974 36.8579 23.5974 36.8579L20.798 36.2262V22.789L29.6446 36.6772C30.7267 38.0291 31.0885 38.4804 32.5332 38.4804C33.4355 38.4804 34.5184 38.1196 35.6926 37.4885V17.6484L37.0451 17.3789Z" fill="black"/>
</svg>
