<svg width="167" height="36" viewBox="0 0 167 36" fill="none" xmlns="http://www.w3.org/2000/svg">
<path d="M20.5066 25.7422L18.9394 25.9813V8.795H23.3223V28.7173H17.6113L4.86103 11.531L6.40168 11.2919V28.7173H2.04535V8.795H7.88921L20.5066 25.7422ZM32.9717 29.1157C31.5728 29.1157 30.3774 28.8324 29.3857 28.2657C28.4118 27.6813 27.6591 26.8578 27.1279 25.7953C26.6143 24.7328 26.3576 23.4755 26.3576 22.0234V13.6029H30.7936V21.3593C30.7936 22.7052 31.1123 23.7323 31.7498 24.4406C32.3874 25.1312 33.2905 25.4766 34.4593 25.4766C35.327 25.4766 36.0619 25.2995 36.664 24.9453C37.2838 24.5734 37.7619 24.0422 38.0984 23.3515C38.4349 22.6609 38.6031 21.8551 38.6031 20.9343L40.0375 21.7046C39.8604 23.263 39.4443 24.6 38.789 25.7156C38.1338 26.8136 37.3015 27.6547 36.2921 28.2391C35.3004 28.8235 34.1936 29.1157 32.9717 29.1157ZM39.5328 28.7173L38.6031 22.9796V13.6029H43.0391V23.6437L43.9688 28.7173H39.5328ZM44.7639 16.9498V14.9842L47.9249 13.9482L49.8108 9.61845H52.3609V13.6029H59.0548V16.9498H52.3609V22.3687C52.3609 23.5906 52.5999 24.4406 53.0781 24.9187C53.5739 25.3969 54.4239 25.6359 55.6281 25.6359C56.3896 25.6359 57.0625 25.5651 57.6469 25.4234C58.2313 25.2641 58.7891 25.0516 59.3204 24.7859V28.2391C58.8068 28.4516 58.125 28.6464 57.275 28.8235C56.425 29.0183 55.5396 29.1157 54.6187 29.1157C53.0604 29.1157 51.7853 28.8678 50.7937 28.3719C49.8197 27.8584 49.0936 27.15 48.6155 26.2469C48.1551 25.3438 47.9249 24.2901 47.9249 23.0859V16.9498H44.7639ZM58.1516 16.9498V13.6029H63.2517L60.4892 15.6748L63.1986 9.61845H65.7486V13.6029H72.4425V16.9498H65.7486V22.3687C65.7486 23.5906 65.9877 24.4406 66.4658 24.9187C66.9617 25.3969 67.8205 25.6359 69.0424 25.6359C69.8039 25.6359 70.4768 25.5563 71.0612 25.3969C71.6456 25.2375 72.1946 25.0339 72.7081 24.7859V28.2391C72.1769 28.4693 71.4862 28.673 70.6362 28.8501C69.7862 29.0272 68.9096 29.1157 68.0065 29.1157C66.4481 29.1157 65.1731 28.8678 64.1814 28.3719C63.2074 27.8584 62.4814 27.15 62.0032 26.2469C61.5428 25.3438 61.3126 24.2901 61.3126 23.0859V16.9498H58.1516ZM86.2252 8.795V26.725L84.1798 24.7328H99.1348V28.7173H81.7095V8.795H86.2252ZM114.367 28.7173L113.729 23.1921L114.446 21.1734L113.729 19.1811L114.367 13.6029H118.962L118.085 21.1734L118.962 28.7173H114.367ZM115.535 21.1734C115.252 22.7671 114.73 24.1661 113.968 25.3703C113.224 26.5568 112.277 27.4776 111.126 28.1329C109.993 28.7881 108.718 29.1157 107.301 29.1157C105.831 29.1157 104.529 28.7881 103.396 28.1329C102.263 27.4599 101.377 26.5302 100.74 25.3438C100.12 24.1396 99.8101 22.7494 99.8101 21.1734C99.8101 19.5796 100.12 18.1894 100.74 17.003C101.377 15.7988 102.263 14.8691 103.396 14.2139C104.529 13.5409 105.831 13.2045 107.301 13.2045C108.718 13.2045 109.993 13.5321 111.126 14.1873C112.277 14.8425 113.233 15.7722 113.995 16.9764C114.756 18.1629 115.27 19.5619 115.535 21.1734ZM104.299 21.1734C104.299 22.0588 104.476 22.838 104.83 23.5109C105.202 24.1838 105.707 24.7151 106.345 25.1047C106.982 25.4766 107.717 25.6625 108.549 25.6625C109.382 25.6625 110.161 25.4766 110.887 25.1047C111.631 24.7151 112.286 24.1838 112.853 23.5109C113.419 22.838 113.862 22.0588 114.181 21.1734C113.862 20.2879 113.419 19.5087 112.853 18.8358C112.286 18.1452 111.631 17.6139 110.887 17.242C110.161 16.8524 109.382 16.6576 108.549 16.6576C107.717 16.6576 106.982 16.8524 106.345 17.242C105.707 17.6139 105.202 18.1452 104.83 18.8358C104.476 19.5087 104.299 20.2879 104.299 21.1734ZM121.663 8.26374H126.099V18.4108L125.488 19.6061V22.9L126.099 24.1219V28.7173H121.663V8.26374ZM124.531 21.1734C124.815 19.5619 125.337 18.1629 126.099 16.9764C126.86 15.7722 127.807 14.8425 128.941 14.1873C130.074 13.5321 131.349 13.2045 132.766 13.2045C134.236 13.2045 135.537 13.5409 136.671 14.2139C137.804 14.8691 138.689 15.7988 139.327 17.003C139.964 18.1894 140.283 19.5796 140.283 21.1734C140.283 22.7494 139.964 24.1396 139.327 25.3438C138.689 26.5302 137.804 27.4599 136.671 28.1329C135.537 28.7881 134.236 29.1157 132.766 29.1157C131.349 29.1157 130.074 28.7881 128.941 28.1329C127.807 27.4776 126.86 26.5568 126.099 25.3703C125.355 24.1661 124.832 22.7671 124.531 21.1734ZM135.767 21.1734C135.767 20.2879 135.582 19.5087 135.21 18.8358C134.855 18.1452 134.36 17.6139 133.722 17.242C133.085 16.8524 132.359 16.6576 131.544 16.6576C130.712 16.6576 129.924 16.8524 129.18 17.242C128.436 17.6139 127.781 18.1452 127.214 18.8358C126.665 19.5087 126.231 20.2879 125.913 21.1734C126.231 22.0588 126.665 22.838 127.214 23.5109C127.781 24.1838 128.436 24.7151 129.18 25.1047C129.924 25.4766 130.712 25.6625 131.544 25.6625C132.359 25.6625 133.085 25.4766 133.722 25.1047C134.36 24.7151 134.855 24.1838 135.21 23.5109C135.582 22.838 135.767 22.0588 135.767 21.1734ZM159.165 23.9625C159.165 25.0427 158.846 25.9724 158.209 26.7516C157.589 27.5308 156.659 28.124 155.42 28.5313C154.18 28.9209 152.666 29.1157 150.877 29.1157C149.036 29.1157 147.433 28.8943 146.069 28.4516C144.706 27.9912 143.643 27.3448 142.882 26.5125C142.12 25.6802 141.713 24.7151 141.66 23.6172H146.176C146.282 24.113 146.547 24.5469 146.972 24.9187C147.397 25.2729 147.946 25.5474 148.619 25.7422C149.31 25.937 150.107 26.0344 151.01 26.0344C152.267 26.0344 153.215 25.8927 153.852 25.6094C154.508 25.326 154.835 24.901 154.835 24.3344C154.835 23.9271 154.605 23.6172 154.145 23.4047C153.702 23.1921 152.878 23.0328 151.674 22.9265L148.858 22.714C147.176 22.5723 145.839 22.289 144.847 21.864C143.856 21.439 143.147 20.9077 142.722 20.2702C142.315 19.615 142.111 18.8978 142.111 18.1186C142.111 17.0384 142.448 16.1352 143.121 15.4092C143.794 14.6831 144.732 14.1342 145.937 13.7623C147.158 13.3904 148.566 13.2045 150.16 13.2045C151.789 13.2045 153.241 13.4258 154.516 13.8685C155.791 14.3113 156.81 14.9222 157.571 15.7014C158.35 16.4806 158.793 17.3837 158.899 18.4108H154.384C154.313 18.0389 154.109 17.6936 153.773 17.3749C153.454 17.0384 152.985 16.7639 152.365 16.5514C151.745 16.3389 150.939 16.2326 149.948 16.2326C148.832 16.2326 147.973 16.3655 147.371 16.6311C146.769 16.879 146.468 17.2597 146.468 17.7733C146.468 18.1275 146.654 18.4197 147.026 18.6499C147.397 18.8624 148.088 19.0129 149.098 19.1014L152.763 19.3936C154.392 19.5353 155.676 19.8098 156.615 20.2171C157.553 20.6067 158.209 21.1202 158.581 21.7577C158.97 22.3953 159.165 23.1302 159.165 23.9625Z" fill="#000000"/>
<path d="M157.514 9.77549C158.784 9.45681 159.556 8.16875 159.238 6.89851C158.919 5.62828 157.632 4.85688 156.361 5.17556C155.091 5.49423 154.319 6.7823 154.637 8.05253C154.955 9.32277 156.243 10.0942 157.514 9.77549Z" fill="#00e2a9"/>
<path d="M163.513 12.9133C164.53 12.6585 165.147 11.6282 164.892 10.612C164.638 9.59575 163.607 8.97844 162.591 9.23318C161.575 9.48791 160.957 10.5182 161.212 11.5345C161.467 12.5507 162.497 13.168 163.513 12.9133Z" fill="#00e2a9"/>
<path d="M164.389 6.34724C165.914 5.96514 166.84 4.41966 166.458 2.89532C166.076 1.37099 164.53 0.445022 163.006 0.827125C161.481 1.20923 160.555 2.7547 160.938 4.27904C161.32 5.80338 162.865 6.72934 164.389 6.34724Z" fill="#00e2a9"/>
</svg>