<svg width="320" height="39" viewBox="0 0 320 39" fill="none" xmlns="http://www.w3.org/2000/svg">
<g clip-path="url(#clip0_17_158)">
<path d="M50.6555 30.7899V9.89986H59.2503C60.5634 9.89986 61.7173 10.1684 62.7121 10.7056C63.7267 11.2229 64.5126 11.959 65.0697 12.914C65.6466 13.869 65.9351 15.003 65.9351 16.3161V16.7339C65.9351 18.0271 65.6367 19.1611 65.0398 20.136C64.4628 21.091 63.667 21.837 62.6524 22.3742C61.6576 22.8915 60.5236 23.1501 59.2503 23.1501H54.5948V30.7899H50.6555ZM54.5948 19.569H58.8623C59.7974 19.569 60.5534 19.3103 61.1304 18.7931C61.7073 18.2758 61.9958 17.5695 61.9958 16.6742V16.3758C61.9958 15.4805 61.7073 14.7742 61.1304 14.2569C60.5534 13.7396 59.7974 13.481 58.8623 13.481H54.5948V19.569Z" fill="black"/>
<path d="M68.5163 30.7899V15.9878H72.2168V17.659H72.754C72.9728 17.0622 73.3309 16.6245 73.8283 16.3459C74.3456 16.0674 74.9425 15.9281 75.6189 15.9281H77.4095V19.2705H75.5592C74.6042 19.2705 73.8184 19.5292 73.2016 20.0465C72.5849 20.5438 72.2765 21.3198 72.2765 22.3742V30.7899H68.5163Z" fill="black"/>
<path d="M86.5684 31.2077C85.0962 31.2077 83.7732 30.9093 82.5993 30.3124C81.4255 29.7156 80.5004 28.8501 79.8239 27.7161C79.1475 26.5821 78.8093 25.2192 78.8093 23.6276V23.1501C78.8093 21.5585 79.1475 20.1957 79.8239 19.0616C80.5004 17.9276 81.4255 17.0622 82.5993 16.4653C83.7732 15.8684 85.0962 15.57 86.5684 15.57C88.0407 15.57 89.3637 15.8684 90.5376 16.4653C91.7114 17.0622 92.6365 17.9276 93.3129 19.0616C93.9894 20.1957 94.3276 21.5585 94.3276 23.1501V23.6276C94.3276 25.2192 93.9894 26.5821 93.3129 27.7161C92.6365 28.8501 91.7114 29.7156 90.5376 30.3124C89.3637 30.9093 88.0407 31.2077 86.5684 31.2077ZM86.5684 27.8653C87.7224 27.8653 88.6773 27.4972 89.4334 26.7611C90.1894 26.0051 90.5674 24.9307 90.5674 23.5381V23.2396C90.5674 21.847 90.1894 20.7826 89.4334 20.0465C88.6972 19.2904 87.7423 18.9124 86.5684 18.9124C85.4145 18.9124 84.4595 19.2904 83.7035 20.0465C82.9475 20.7826 82.5695 21.847 82.5695 23.2396V23.5381C82.5695 24.9307 82.9475 26.0051 83.7035 26.7611C84.4595 27.4972 85.4145 27.8653 86.5684 27.8653Z" fill="black"/>
<path d="M103.469 31.2077C102.295 31.2077 101.191 30.9192 100.156 30.3423C99.1414 29.7454 98.3257 28.88 97.7089 27.7459C97.0922 26.6119 96.7838 25.2391 96.7838 23.6276V23.1501C96.7838 21.5386 97.0922 20.1658 97.7089 19.0318C98.3257 17.8978 99.1414 17.0423 100.156 16.4653C101.171 15.8684 102.275 15.57 103.469 15.57C104.364 15.57 105.11 15.6794 105.707 15.8983C106.324 16.0972 106.821 16.3559 107.199 16.6742C107.577 16.9925 107.865 17.3307 108.064 17.6889H108.602V9.89986H112.362V30.7899H108.661V28.9993H108.124C107.786 29.5564 107.259 30.0637 106.542 30.5213C105.846 30.9789 104.822 31.2077 103.469 31.2077ZM104.603 27.925C105.757 27.925 106.722 27.5569 107.497 26.8208C108.273 26.0648 108.661 24.9705 108.661 23.5381V23.2396C108.661 21.8072 108.273 20.7229 107.497 19.9868C106.741 19.2307 105.776 18.8527 104.603 18.8527C103.449 18.8527 102.484 19.2307 101.708 19.9868C100.932 20.7229 100.544 21.8072 100.544 23.2396V23.5381C100.544 24.9705 100.932 26.0648 101.708 26.8208C102.484 27.5569 103.449 27.925 104.603 27.925Z" fill="black"/>
<path d="M121.873 31.0287C120.719 31.0287 119.704 30.77 118.829 30.2527C117.973 29.7156 117.307 28.9794 116.829 28.0444C116.352 27.1093 116.113 26.0349 116.113 24.8213V15.9878H119.873V24.5229C119.873 25.637 120.142 26.4726 120.679 27.0297C121.236 27.5868 122.022 27.8653 123.037 27.8653C124.19 27.8653 125.086 27.4873 125.722 26.7313C126.359 25.9554 126.677 24.881 126.677 23.5082V15.9878H130.438V30.7899H126.737V28.8501H126.2C125.961 29.3475 125.513 29.8349 124.857 30.3124C124.2 30.7899 123.206 31.0287 121.873 31.0287Z" fill="black"/>
<path d="M141.277 31.2077C139.844 31.2077 138.541 30.9093 137.367 30.3124C136.213 29.7156 135.298 28.8501 134.622 27.7161C133.945 26.5821 133.607 25.2093 133.607 23.5978V23.18C133.607 21.5684 133.945 20.1957 134.622 19.0616C135.298 17.9276 136.213 17.0622 137.367 16.4653C138.541 15.8684 139.844 15.57 141.277 15.57C142.689 15.57 143.903 15.8187 144.918 16.3161C145.932 16.8135 146.748 17.4999 147.365 18.3753C148.001 19.2307 148.419 20.2056 148.618 21.2999L144.977 22.0758C144.898 21.4789 144.719 20.9417 144.44 20.4643C144.162 19.9868 143.764 19.6088 143.246 19.3302C142.749 19.0517 142.122 18.9124 141.366 18.9124C140.61 18.9124 139.924 19.0815 139.307 19.4198C138.71 19.7381 138.233 20.2255 137.875 20.8821C137.537 21.5187 137.367 22.3046 137.367 23.2396V23.5381C137.367 24.4732 137.537 25.269 137.875 25.9255C138.233 26.5622 138.71 27.0496 139.307 27.3878C139.924 27.7061 140.61 27.8653 141.366 27.8653C142.5 27.8653 143.356 27.5768 143.933 26.9999C144.53 26.403 144.908 25.6271 145.067 24.6721L148.708 25.5376C148.449 26.592 148.001 27.5569 147.365 28.4323C146.748 29.2878 145.932 29.9643 144.918 30.4616C143.903 30.959 142.689 31.2077 141.277 31.2077Z" fill="black"/>
<path d="M156.686 30.7899C155.711 30.7899 154.915 30.4915 154.298 29.8946C153.702 29.2779 153.403 28.4622 153.403 27.4475V19.0915H149.703V15.9878H153.403V11.392H157.163V15.9878H161.222V19.0915H157.163V26.791C157.163 27.3878 157.442 27.6862 157.999 27.6862H160.864V30.7899H156.686Z" fill="black"/>
<path d="M164.327 30.7899V15.9878H168.087V30.7899H164.327ZM166.207 14.2569C165.531 14.2569 164.954 14.0381 164.476 13.6004C164.019 13.1627 163.79 12.5857 163.79 11.8695C163.79 11.1533 164.019 10.5763 164.476 10.1386C164.954 9.7009 165.531 9.48206 166.207 9.48206C166.904 9.48206 167.481 9.7009 167.938 10.1386C168.396 10.5763 168.625 11.1533 168.625 11.8695C168.625 12.5857 168.396 13.1627 167.938 13.6004C167.481 14.0381 166.904 14.2569 166.207 14.2569Z" fill="black"/>
<path d="M175.059 30.7899L170.344 15.9878H174.343L177.775 28.0444H178.312L181.744 15.9878H185.743L181.028 30.7899H175.059Z" fill="black"/>
<path d="M188.007 30.7899V15.9878H191.767V30.7899H188.007ZM189.887 14.2569C189.211 14.2569 188.634 14.0381 188.156 13.6004C187.699 13.1627 187.47 12.5857 187.47 11.8695C187.47 11.1533 187.699 10.5763 188.156 10.1386C188.634 9.7009 189.211 9.48206 189.887 9.48206C190.583 9.48206 191.16 9.7009 191.618 10.1386C192.075 10.5763 192.304 11.1533 192.304 11.8695C192.304 12.5857 192.075 13.1627 191.618 13.6004C191.16 14.0381 190.583 14.2569 189.887 14.2569Z" fill="black"/>
<path d="M201.306 30.7899C200.331 30.7899 199.535 30.4915 198.918 29.8946C198.321 29.2779 198.023 28.4622 198.023 27.4475V19.0915H194.322V15.9878H198.023V11.392H201.783V15.9878H205.842V19.0915H201.783V26.791C201.783 27.3878 202.062 27.6862 202.619 27.6862H205.484V30.7899H201.306Z" fill="black"/>
<path d="M210.559 36.7585V33.4758H218.616C219.173 33.4758 219.452 33.1773 219.452 32.5805V28.8501H218.915C218.755 29.1883 218.507 29.5266 218.169 29.8648C217.83 30.203 217.373 30.4815 216.796 30.7004C216.219 30.9192 215.483 31.0287 214.587 31.0287C213.433 31.0287 212.419 30.77 211.543 30.2527C210.688 29.7156 210.021 28.9794 209.544 28.0444C209.066 27.1093 208.828 26.0349 208.828 24.8213V15.9878H212.588V24.5229C212.588 25.637 212.856 26.4726 213.394 27.0297C213.951 27.5868 214.737 27.8653 215.751 27.8653C216.905 27.8653 217.8 27.4873 218.437 26.7313C219.074 25.9554 219.392 24.881 219.392 23.5082V15.9878H223.152V33.4161C223.152 34.4307 222.854 35.2365 222.257 35.8334C221.66 36.4501 220.864 36.7585 219.87 36.7585H210.559Z" fill="black"/>
<path d="M234.198 30.7899V9.89986H241.688L245.836 28.104H246.374V9.89986H250.253V30.7899H242.763L238.614 12.5857H238.077V30.7899H234.198Z" fill="black"/>
<path d="M260.756 31.2077C259.283 31.2077 257.98 30.8993 256.846 30.2826C255.732 29.6459 254.857 28.7606 254.22 27.6266C253.603 26.4726 253.295 25.1198 253.295 23.5679V23.2098C253.295 21.658 253.603 20.315 254.22 19.181C254.837 18.0271 255.702 17.1417 256.816 16.525C257.93 15.8883 259.224 15.57 260.696 15.57C262.148 15.57 263.412 15.8983 264.486 16.5548C265.56 17.1915 266.396 18.0868 266.993 19.2407C267.59 20.3747 267.888 21.6978 267.888 23.2098V24.4931H257.115C257.154 25.5077 257.532 26.3334 258.249 26.97C258.965 27.6067 259.84 27.925 260.875 27.925C261.929 27.925 262.705 27.6962 263.203 27.2386C263.7 26.781 264.078 26.2737 264.337 25.7166L267.411 27.3281C267.132 27.8454 266.724 28.4124 266.187 29.0292C265.67 29.626 264.973 30.1433 264.098 30.581C263.223 30.9988 262.108 31.2077 260.756 31.2077ZM257.145 21.6878H264.068C263.989 20.8323 263.64 20.1459 263.024 19.6287C262.427 19.1114 261.641 18.8527 260.666 18.8527C259.651 18.8527 258.846 19.1114 258.249 19.6287C257.652 20.1459 257.284 20.8323 257.145 21.6878Z" fill="black"/>
<path d="M268.662 30.7899L274.033 23.3292L268.721 15.9878H273.078L276.451 20.9119H276.988L280.36 15.9878H284.717L279.405 23.3292L284.777 30.7899H280.36L276.988 25.8061H276.451L273.078 30.7899H268.662Z" fill="black"/>
<path d="M292.978 31.0287C291.824 31.0287 290.809 30.77 289.934 30.2527C289.078 29.7156 288.412 28.9794 287.934 28.0444C287.457 27.1093 287.218 26.0349 287.218 24.8213V15.9878H290.978V24.5229C290.978 25.637 291.247 26.4726 291.784 27.0297C292.341 27.5868 293.127 27.8653 294.141 27.8653C295.295 27.8653 296.191 27.4873 296.827 26.7313C297.464 25.9554 297.782 24.881 297.782 23.5082V15.9878H301.542V30.7899H297.842V28.8501H297.305C297.066 29.3475 296.618 29.8349 295.962 30.3124C295.305 30.7899 294.31 31.0287 292.978 31.0287Z" fill="black"/>
<path d="M311.576 31.2077C309.646 31.2077 308.064 30.7899 306.831 29.9543C305.597 29.1187 304.851 27.925 304.593 26.3732L308.054 25.4779C308.194 26.1742 308.423 26.7213 308.741 27.1192C309.079 27.5171 309.487 27.8056 309.964 27.9847C310.462 28.1438 310.999 28.2234 311.576 28.2234C312.451 28.2234 313.098 28.0742 313.516 27.7758C313.934 27.4574 314.142 27.0695 314.142 26.6119C314.142 26.1543 313.943 25.8061 313.546 25.5674C313.148 25.3088 312.511 25.0999 311.636 24.9407L310.8 24.7915C309.765 24.5925 308.82 24.3239 307.965 23.9857C307.109 23.6276 306.423 23.1402 305.906 22.5234C305.388 21.9067 305.13 21.1109 305.13 20.136C305.13 18.6637 305.667 17.5396 306.741 16.7637C307.816 15.9679 309.228 15.57 310.979 15.57C312.63 15.57 314.003 15.9381 315.097 16.6742C316.192 17.4103 316.908 18.3753 317.246 19.569L313.754 20.6433C313.595 19.8873 313.267 19.3501 312.77 19.0318C312.292 18.7135 311.695 18.5543 310.979 18.5543C310.263 18.5543 309.716 18.6836 309.338 18.9423C308.96 19.181 308.771 19.5192 308.771 19.9569C308.771 20.4344 308.97 20.7925 309.368 21.0313C309.765 21.2501 310.303 21.4192 310.979 21.5386L311.815 21.6878C312.929 21.8868 313.934 22.1554 314.829 22.4936C315.744 22.8119 316.46 23.2794 316.977 23.8962C317.515 24.4931 317.783 25.3088 317.783 26.3433C317.783 27.8951 317.216 29.0988 316.082 29.9543C314.968 30.7899 313.466 31.2077 311.576 31.2077Z" fill="black"/>
<g style="mix-blend-mode:multiply">
<rect x="13.6011" y="2.9292" width="8.4555" height="33.822" fill="#0196CC"/>
</g>
<g style="mix-blend-mode:multiply">
<rect x="0.917816" y="24.0679" width="8.4555" height="33.822" transform="rotate(-90 0.917816 24.0679)" fill="#F5E002"/>
</g>
<g style="mix-blend-mode:multiply">
<rect x="26.7972" y="4.89282" width="8.4555" height="33.822" transform="rotate(45 26.7972 4.89282)" fill="#F258B8"/>
</g>
</g>
<defs>
<clipPath id="clip0_17_158">
<rect width="318.126" height="38" fill="white" transform="translate(0.937195 0.76001)"/>
</clipPath>
</defs>
</svg>
