<svg width="169" height="93" viewBox="0 0 169 93" fill="none" xmlns="http://www.w3.org/2000/svg">
<path fill-rule="evenodd" clip-rule="evenodd" d="M2.02756 62.2891H9.7004V85.6604H2.02756V62.2891ZM13.3653 62.2891H20.2444L20.4648 65.905C21.7436 62.8624 24.3013 61.7599 27.388 61.7599C32.371 61.7599 35.4577 65.0672 35.4577 70.6234V85.6604H27.7849V73.2251C27.7849 69.6974 27.2116 67.713 24.6981 67.713C22.1846 67.713 21.0381 69.6974 21.0381 73.2251V85.6604H13.3653V62.2891ZM52.9376 70.006C52.5849 67.9776 50.9974 66.7429 49.1894 66.7429C47.3815 66.7429 46.0585 67.713 46.1467 69.2123C46.2349 70.7116 47.8665 71.4171 49.9832 71.7258C57.4355 72.8723 60.6105 74.7685 60.6105 79.1341C60.6105 83.8083 56.289 86.1896 49.8068 86.1896C42.5308 86.1896 38.1211 83.2351 37.7243 78.208L45.3971 77.8994C45.794 79.9278 47.2051 81.1184 49.5863 81.1184C51.1297 81.1184 52.8054 80.457 52.7613 79.0459C52.7172 77.3261 50.8651 76.8851 48.7044 76.4883C41.5166 75.1654 38.2534 73.4015 38.2534 69.2123C38.2534 64.4939 42.2662 61.7158 49.4099 61.7158C55.7157 61.7158 59.7726 64.6703 60.5223 69.7415L52.9376 70.006ZM63.2566 62.2891H70.9295V85.6604H63.2566V62.2891ZM83.8485 84.6462C77.6308 84.6462 73.7062 80.2365 73.7062 73.622C73.7062 66.4783 77.6749 61.7599 83.8485 61.7599C86.7588 61.7599 89.1842 63.3033 90.463 65.8169V62.2891H98.0917V82.6618C98.0917 88.8795 93.0647 92.76 85.921 92.76C80.2325 92.76 75.8228 90.2024 74.4118 86.2337L82.1287 85.7045C82.7019 86.9833 84.113 87.8211 86.0092 87.8211C88.7873 87.8211 90.3307 86.366 90.3307 83.2792V81.2507C89.1401 83.3674 86.4943 84.6462 83.8485 84.6462ZM81.5113 73.5338C81.5113 77.1938 83.4075 79.7514 86.0974 79.7514C88.9196 79.7514 90.6394 77.1938 90.6835 73.5338C90.7276 69.7856 88.9196 67.272 86.0974 67.272C83.2752 67.272 81.5113 69.7856 81.5113 73.5338ZM102.253 54.3517H109.926V65.1995C111.293 62.6419 113.718 61.7599 116.496 61.7599C121.479 61.7599 124.346 65.4641 124.346 70.6234V85.6604H116.673V73.3133C116.673 69.8297 116.099 67.8453 113.586 67.8453C111.072 67.8453 109.926 69.8297 109.926 73.3133V85.6604H102.253V54.3517ZM130.582 56.9534H138.255V62.2891H144.34V67.8012H138.255V77.5025C138.255 79.1782 139.137 80.1042 140.724 80.1042H144.428V85.6604H138.828C133.404 85.6604 130.582 83.0146 130.582 77.5025V67.8012H126.613V62.2891H130.582V56.9534ZM160.355 70.006C160.002 67.9776 158.414 66.7429 156.606 66.7429C154.798 66.7429 153.476 67.713 153.564 69.2123C153.652 70.7116 155.284 71.4171 157.4 71.7258C164.853 72.8723 168.028 74.7685 168.028 79.1341C168.028 83.8083 163.706 86.1896 157.224 86.1896C149.948 86.1896 145.538 83.2351 145.141 78.208L152.814 77.8994C153.211 79.9278 154.622 81.1184 157.003 81.1184C158.547 81.1184 160.222 80.457 160.178 79.0459C160.134 77.3261 158.282 76.8851 156.121 76.4883C148.934 75.1654 145.67 73.4015 145.67 69.2123C145.67 64.4939 149.683 61.7158 156.827 61.7158C163.133 61.7158 167.19 64.6703 167.939 69.7415L160.355 70.006Z" fill="black"/>
<path d="M7.33761 40.8279C8.06064 40.848 8.42216 40.9786 8.42216 41.2196C8.42216 42.3041 8.06064 44.3427 7.33761 47.3352V47.5461H7.54849C8.79372 44.7745 9.72763 43.3887 10.3502 43.3887H11.0432C11.5854 44.1117 12.0072 44.4732 12.3085 44.4732C12.3888 44.4732 13.2625 44.1921 14.9295 43.6297L15.773 43.8406V44.7143C14.8491 45.4574 13.7847 45.9093 12.5796 46.0699L10.6214 45.8289C9.35608 48.4198 8.11085 49.7152 6.88571 49.7152H6.01204C5.8112 49.7152 5.60032 49.4943 5.37939 49.0525V47.7269L5.6204 46.4616V46.2507H5.37939C4.29484 49.1428 3.21029 50.5889 2.12574 50.5889H1.46295C1.18177 50.4885 0.890553 50.127 0.589289 49.5044C1.31232 44.8649 2.03536 42.5451 2.75839 42.5451H3.4513C3.71239 42.5451 3.84294 42.7661 3.84294 43.2079C3.84294 43.6096 3.63206 44.6239 3.21029 46.2507V46.4616H3.4513C4.91745 42.7058 6.21289 40.8279 7.33761 40.8279ZM21.4669 30.2536H22.7925V31.549C21.4066 31.9708 20.533 32.1817 20.1715 32.1817H19.5388C19.2375 32.1817 19.0869 32.031 19.0869 31.7298C19.0869 31.5289 19.8802 31.0369 21.4669 30.2536ZM16.2852 40.2254H17.1287C17.3496 40.2254 17.5605 40.4363 17.7613 40.8581V41.0991C17.7613 41.5409 17.0383 43.4791 15.5922 46.9135V47.998C17.5002 47.0139 19.6091 45.6482 21.9188 43.9008H22.0995C22.3807 44.0414 22.682 44.1117 23.0033 44.1117V44.7444C20.4125 47.1947 17.8819 48.7914 15.4115 49.5345H14.7487C13.865 49.5345 13.4231 49.1027 13.4231 48.239C13.4231 47.2348 14.2265 44.9251 15.8333 41.31C15.6726 41.0087 15.5922 40.7878 15.5922 40.6472L16.2852 40.2254ZM40.5369 3.07955H40.9888C41.4106 3.07955 41.6215 3.37077 41.6215 3.95321C40.8984 6.08214 39.372 8.89394 37.0423 12.3886C37.0423 12.73 35.7468 15.6222 33.1559 21.065C25.6243 37.6747 21.7983 47.5863 21.6778 50.7998C21.7983 51.081 21.8585 51.2919 21.8585 51.4324H22.0995C22.8427 51.4324 25.2929 48.9822 29.4504 44.0816C29.7316 43.9209 30.0328 43.8406 30.3542 43.8406H30.5349C30.8362 43.8808 30.9868 44.0314 30.9868 44.2925V44.7143C27.2311 50.0768 24.0578 52.758 21.4669 52.758C20.4426 52.758 19.9304 52.2459 19.9304 51.2216V50.3479C19.9304 46.4114 26.4378 30.7155 39.4524 3.2603L40.5369 3.07955ZM48.189 3.07955H48.6409C49.0627 3.07955 49.2736 3.37077 49.2736 3.95321C48.5505 6.08214 47.0241 8.89394 44.6944 12.3886C44.6944 12.73 43.3989 15.6222 40.8081 21.065C33.2764 37.6747 29.4504 47.5863 29.3299 50.7998C29.4504 51.081 29.5106 51.2919 29.5106 51.4324H29.7517C30.4948 51.4324 32.9451 48.9822 37.1025 44.0816C37.3837 43.9209 37.6849 43.8406 38.0063 43.8406H38.1871C38.4883 43.8808 38.639 44.0314 38.639 44.2925V44.7143C34.8832 50.0768 31.7099 52.758 29.119 52.758C28.0947 52.758 27.5826 52.2459 27.5826 51.2216V50.3479C27.5826 46.4114 34.0899 30.7155 47.1045 3.2603L48.189 3.07955ZM44.0617 30.2536H45.3873V31.549C44.0015 31.9708 43.1278 32.1817 42.7663 32.1817H42.1336C41.8324 32.1817 41.6817 32.031 41.6817 31.7298C41.6817 31.5289 42.475 31.0369 44.0617 30.2536ZM38.88 40.2254H39.7235C39.9444 40.2254 40.1553 40.4363 40.3562 40.8581V41.0991C40.3562 41.5409 39.6331 43.4791 38.1871 46.9135V47.998C40.0951 47.0139 42.2039 45.6482 44.5136 43.9008H44.6944C44.9755 44.0414 45.2768 44.1117 45.5982 44.1117V44.7444C43.0073 47.1947 40.4767 48.7914 38.0063 49.5345H37.3435C36.4598 49.5345 36.018 49.1027 36.018 48.239C36.018 47.2348 36.8213 44.9251 38.4281 41.31C38.2674 41.0087 38.1871 40.7878 38.1871 40.6472L38.88 40.2254ZM50.6293 41.8522H51.2619C51.4828 41.8522 51.6937 42.0631 51.8946 42.4849C50.9104 44.4532 50.1272 46.1904 49.5447 47.6968H49.7255C52.236 45.1059 53.8327 43.8105 54.5156 43.8105C54.8168 43.951 55.0277 44.0213 55.1482 44.0213V44.654C52.2561 47.8474 50.2376 49.4441 49.0928 49.4441H48.6409C47.7974 49.4441 47.3756 49.0826 47.3756 48.3595C47.4961 48.0583 47.5564 47.8374 47.5564 47.6968C45.6885 49.4441 44.3228 50.3178 43.4592 50.3178H42.3746C41.4909 50.3178 41.0491 49.8759 41.0491 48.9922C41.0491 47.4055 42.6458 45.4473 45.8392 43.1176H47.3756C47.8375 43.1176 48.3397 43.3485 48.8819 43.8105C49.2033 43.1075 49.7857 42.4548 50.6293 41.8522ZM46.7128 44.2021C44.2625 46.311 43.0374 47.988 43.0374 49.2332C43.8006 49.0123 45.4576 47.4859 48.0083 44.654C47.6267 44.654 47.1949 44.5034 46.7128 44.2021ZM63.192 38.9601H64.5175C64.9393 39.1208 65.1502 39.5626 65.1502 40.2857V40.6773C65.1502 42.5451 63.7744 46.7528 61.0229 53.3003H60.1793C59.9584 53.3003 59.7475 53.0693 59.5467 52.6074C62.1376 46.2808 63.433 42.4548 63.433 41.1292V40.9183H63.192C60.8421 45.2565 59.396 47.4959 58.8538 47.6365H57.5583C57.2772 47.6365 57.1366 47.4859 57.1366 47.1846C57.1366 46.5821 57.5784 45.136 58.4621 42.8464V42.6657H58.2211C56.3332 46.3411 55.098 48.2893 54.5156 48.5102H53.2201C52.939 48.5102 52.7984 48.3696 52.7984 48.0884C52.7984 45.1159 53.3708 43.5192 54.5156 43.2983H54.7566C55.0578 43.3385 55.2085 43.4891 55.2085 43.7502V43.931C55.2085 44.2724 55.1281 44.5737 54.9675 44.8348V45.0155H55.2085C56.3734 42.2841 57.5885 40.9183 58.8538 40.9183H59.5467C59.9685 40.9183 60.1793 41.561 60.1793 42.8464H60.3902C60.9927 41.32 61.9267 40.0246 63.192 38.9601ZM87.0521 40.1049H87.9258C88.1266 40.1049 88.3375 40.3258 88.5584 40.7677V41.6414C88.5584 42.264 87.6948 44.5636 85.9676 48.5403C86.3291 48.5403 88.1367 46.9637 91.3903 43.8105H92.4749C92.756 43.8305 92.8966 43.9611 92.8966 44.2021V44.4431C89.7635 48.1989 87.4538 50.0768 85.9676 50.0768H85.124L84.0395 49.8659V48.7813C84.0395 48.1386 84.893 45.8892 86.6002 42.033H86.3893C82.8344 46.5319 80.8862 48.7813 80.5448 48.7813H79.0083C78.7473 48.7813 78.6167 48.6407 78.6167 48.3595V48.1487C78.6167 46.4817 79.5506 44.6741 81.4185 42.7259H82.0511C82.3524 42.746 82.503 42.8765 82.503 43.1176V43.5694L82.262 44.0213H82.503C84.4512 41.4104 85.9676 40.1049 87.0521 40.1049ZM92.6255 40.8581H93.3184C93.5795 40.8982 93.71 41.0489 93.71 41.31V41.7317C92.4246 45.1661 91.7819 47.044 91.7819 47.3654C92.023 47.3654 93.1778 46.1302 95.2465 43.6598L95.8791 43.2682H96.1202L97.2047 43.4791V43.9008C97.2047 44.2624 96.9938 45.2063 96.572 46.7327L96.9637 46.9135C97.3252 46.9135 99.2131 45.9093 102.627 43.9008C103.19 44.1017 103.471 44.3226 103.471 44.5636V44.7444C101.222 46.7327 99.2031 47.8173 97.4156 47.998H96.331C95.3067 47.998 94.7946 47.6365 94.7946 46.9135C93.6498 48.0985 92.7159 48.6909 91.9928 48.6909H90.4564C90.0346 48.5303 89.8237 48.0884 89.8237 47.3654C91.0087 43.0272 91.9426 40.8581 92.6255 40.8581ZM108.412 30.6452H109.075C109.356 30.7055 109.496 30.8561 109.496 31.0971C109.496 31.6996 108.844 33.5072 107.538 36.5199H159.205L160.289 36.7609V37.3935C160.289 37.8354 158.974 38.0563 156.343 38.0563H155.499L154.867 37.6044H106.905C106.905 37.8454 101.332 50.9404 90.1852 76.8893C90.4865 76.8893 90.6371 77.1001 90.6371 77.5219C89.7334 79.5303 88.8597 80.5346 88.0161 80.5346C87.2931 80.4542 86.9316 80.2433 86.9316 79.9019L104.977 37.6044H91.0589C90.7777 37.6044 90.6371 37.4538 90.6371 37.1525C90.7978 36.7308 91.2397 36.5199 91.9627 36.5199H105.158C105.399 36.5199 106.343 34.642 107.99 30.8862L108.412 30.6452ZM112.69 30.6452H113.352C113.634 30.7055 113.774 30.8561 113.774 31.0971C113.774 31.6996 113.121 33.5072 111.816 36.5199H163.483L164.567 36.7609V37.3935C164.567 37.8354 163.252 38.0563 160.621 38.0563H159.777L159.145 37.6044H111.183C111.183 37.8454 105.61 50.9404 94.4632 76.8893C94.7645 76.8893 94.9151 77.1001 94.9151 77.5219C94.0113 79.5303 93.1376 80.5346 92.2941 80.5346C91.5711 80.4542 91.2095 80.2433 91.2095 79.9019L109.255 37.6044H95.3369C95.0557 37.6044 94.9151 37.4538 94.9151 37.1525C95.0758 36.7308 95.5176 36.5199 96.2407 36.5199H109.436C109.677 36.5199 110.621 34.642 112.268 30.8862L112.69 30.6452Z" fill="#00e2a9"/>
</svg>
