<svg width="182" height="38" viewBox="0 0 182 38" fill="none" xmlns="http://www.w3.org/2000/svg">
<path d="M23.6551 27.1699L21.9535 27.4295V8.77012H26.7121V30.4H20.5115L6.66841 11.7406L8.34112 11.4811V30.4H3.61139V8.77012H9.95615L23.6551 27.1699Z" fill="#FEFDF5"/>
<path d="M37.1886 30.8326C35.6697 30.8326 34.3719 30.525 33.2952 29.9097C32.2378 29.2752 31.4207 28.3812 30.8439 27.2276C30.2863 26.074 30.0075 24.7089 30.0075 23.1324V13.9901H34.8238V22.4114C34.8238 23.8726 35.1698 24.9877 35.862 25.7568C36.5541 26.5066 37.5347 26.8815 38.8036 26.8815C39.7458 26.8815 40.5437 26.6893 41.1974 26.3047C41.8703 25.901 42.3894 25.3242 42.7547 24.5744C43.12 23.8245 43.3027 22.9497 43.3027 21.9499L44.86 22.7863C44.6677 24.4782 44.2159 25.9298 43.5045 27.1411C42.7932 28.3331 41.8895 29.2464 40.7936 29.8809C39.7169 30.5154 38.5153 30.8326 37.1886 30.8326ZM44.3121 30.4L43.3027 24.1706V13.9901H48.1189V24.8916L49.1283 30.4H44.3121Z" fill="#FEFDF5"/>
<path d="M49.9915 17.624V15.4898L53.4234 14.3651L55.471 9.66416H58.2397V13.9901H65.5073V17.624H58.2397V23.5073C58.2397 24.8339 58.4992 25.7568 59.0183 26.2759C59.5567 26.795 60.4796 27.0546 61.787 27.0546C62.6137 27.0546 63.3443 26.9777 63.9788 26.8239C64.6133 26.6508 65.2189 26.4201 65.7957 26.1317V29.8809C65.2381 30.1116 64.4979 30.3231 63.575 30.5154C62.6522 30.7269 61.6908 30.8326 60.6911 30.8326C58.9991 30.8326 57.6148 30.5634 56.5381 30.0251C55.4807 29.4675 54.6924 28.6985 54.1733 27.7179C53.6734 26.7373 53.4234 25.5934 53.4234 24.286V17.624H49.9915ZM64.5268 17.624V13.9901H70.064L67.0647 16.2396L70.0063 9.66416H72.7749V13.9901H80.0426V17.624H72.7749V23.5073C72.7749 24.8339 73.0345 25.7568 73.5536 26.2759C74.092 26.795 75.0245 27.0546 76.3511 27.0546C77.1778 27.0546 77.9084 26.9681 78.5429 26.795C79.1774 26.622 79.7734 26.4009 80.331 26.1317V29.8809C79.7542 30.1308 79.0044 30.3519 78.0815 30.5442C77.1586 30.7365 76.2069 30.8326 75.2263 30.8326C73.5344 30.8326 72.1501 30.5634 71.0734 30.0251C70.0159 29.4675 69.2277 28.6985 68.7085 27.7179C68.2086 26.7373 67.9587 25.5934 67.9587 24.286V17.624H64.5268Z" fill="#FEFDF5"/>
<path d="M95.0066 8.77012V28.237L92.786 26.074H109.023V30.4H90.1039V8.77012H95.0066Z" fill="#FEFDF5"/>
<path d="M125.56 30.4L124.868 24.4013L125.647 22.2095L124.868 20.0465L125.56 13.9901H130.549L129.598 22.2095L130.549 30.4H125.56ZM126.829 22.2095C126.522 23.9399 125.954 25.4588 125.128 26.7662C124.32 28.0544 123.291 29.0541 122.042 29.7655C120.811 30.4769 119.427 30.8326 117.889 30.8326C116.293 30.8326 114.88 30.4769 113.649 29.7655C112.419 29.0349 111.458 28.0255 110.765 26.7373C110.092 25.4299 109.756 23.9207 109.756 22.2095C109.756 20.4791 110.092 18.9698 110.765 17.6816C111.458 16.3742 112.419 15.3648 113.649 14.6535C114.88 13.9228 116.293 13.5575 117.889 13.5575C119.427 13.5575 120.811 13.9132 122.042 14.6246C123.291 15.336 124.33 16.3454 125.156 17.6528C125.983 18.941 126.541 20.4599 126.829 22.2095ZM114.63 22.2095C114.63 23.1708 114.822 24.0168 115.207 24.7474C115.61 25.478 116.158 26.0548 116.851 26.4778C117.543 26.8815 118.341 27.0834 119.244 27.0834C120.148 27.0834 120.994 26.8815 121.782 26.4778C122.59 26.0548 123.301 25.478 123.916 24.7474C124.532 24.0168 125.012 23.1708 125.358 22.2095C125.012 21.2482 124.532 20.4022 123.916 19.6716C123.301 18.9217 122.59 18.345 121.782 17.9412C120.994 17.5182 120.148 17.3067 119.244 17.3067C118.341 17.3067 117.543 17.5182 116.851 17.9412C116.158 18.345 115.61 18.9217 115.207 19.6716C114.822 20.4022 114.63 21.2482 114.63 22.2095Z" fill="#FEFDF5"/>
<path d="M133.481 8.19333H138.298V19.2101L137.634 20.5079V24.0841L138.298 25.4107V30.4H133.481V8.19333ZM136.596 22.2095C136.904 20.4599 137.471 18.941 138.298 17.6528C139.124 16.3454 140.153 15.336 141.384 14.6246C142.614 13.9132 143.998 13.5575 145.536 13.5575C147.132 13.5575 148.545 13.9228 149.776 14.6535C151.006 15.3648 151.968 16.3742 152.66 17.6816C153.352 18.9698 153.698 20.4791 153.698 22.2095C153.698 23.9207 153.352 25.4299 152.66 26.7373C151.968 28.0255 151.006 29.0349 149.776 29.7655C148.545 30.4769 147.132 30.8326 145.536 30.8326C143.998 30.8326 142.614 30.4769 141.384 29.7655C140.153 29.0541 139.124 28.0544 138.298 26.7662C137.49 25.4588 136.923 23.9399 136.596 22.2095ZM148.795 22.2095C148.795 21.2482 148.594 20.4022 148.19 19.6716C147.805 18.9217 147.267 18.345 146.575 17.9412C145.883 17.5182 145.094 17.3067 144.21 17.3067C143.306 17.3067 142.451 17.5182 141.643 17.9412C140.836 18.345 140.124 18.9217 139.509 19.6716C138.913 20.4022 138.442 21.2482 138.096 22.2095C138.442 23.1708 138.913 24.0168 139.509 24.7474C140.124 25.478 140.836 26.0548 141.643 26.4778C142.451 26.8815 143.306 27.0834 144.21 27.0834C145.094 27.0834 145.883 26.8815 146.575 26.4778C147.267 26.0548 147.805 25.478 148.19 24.7474C148.594 24.0168 148.795 23.1708 148.795 22.2095Z" fill="#FEFDF5"/>
<path d="M174.198 25.2377C174.198 26.4105 173.852 27.4199 173.16 28.2659C172.487 29.1118 171.478 29.7559 170.132 30.1981C168.786 30.6211 167.142 30.8326 165.2 30.8326C163.201 30.8326 161.461 30.5923 159.98 30.1116C158.5 29.6117 157.346 28.9099 156.52 28.0063C155.693 27.1026 155.251 26.0548 155.193 24.8628H160.096C160.211 25.4011 160.499 25.8721 160.961 26.2759C161.422 26.6604 162.018 26.9584 162.749 27.1699C163.499 27.3814 164.364 27.4872 165.345 27.4872C166.71 27.4872 167.738 27.3334 168.43 27.0257C169.142 26.7181 169.497 26.2567 169.497 25.6414C169.497 25.1992 169.248 24.8628 168.748 24.632C168.267 24.4013 167.373 24.2283 166.066 24.1129L163.008 23.8822C161.182 23.7284 159.73 23.4208 158.654 22.9593C157.577 22.4979 156.808 21.9211 156.346 21.2289C155.904 20.5176 155.683 19.7389 155.683 18.8929C155.683 17.7201 156.048 16.7395 156.779 15.9512C157.51 15.163 158.529 14.5669 159.836 14.1632C161.163 13.7594 162.691 13.5575 164.422 13.5575C166.19 13.5575 167.767 13.7979 169.151 14.2785C170.536 14.7592 171.641 15.4225 172.468 16.2685C173.314 17.1145 173.795 18.095 173.91 19.2101H169.007C168.93 18.8064 168.709 18.4315 168.344 18.0854C167.998 17.7201 167.488 17.4221 166.815 17.1914C166.142 16.9606 165.268 16.8453 164.191 16.8453C162.98 16.8453 162.047 16.9895 161.393 17.2779C160.74 17.547 160.413 17.9604 160.413 18.518C160.413 18.9025 160.615 19.2198 161.019 19.4697C161.422 19.7004 162.172 19.8638 163.268 19.96L167.248 20.2772C169.017 20.431 170.411 20.729 171.43 21.1713C172.449 21.5942 173.16 22.1518 173.564 22.844C173.987 23.5361 174.198 24.334 174.198 25.2377Z" fill="#FEFDF5"/>
<path d="M171.829 9.80881C173.208 9.46282 174.046 8.06435 173.701 6.68524C173.355 5.30612 171.957 4.46861 170.578 4.8146C169.199 5.16059 168.361 6.55906 168.706 7.93817C169.052 9.31729 170.45 10.1548 171.829 9.80881Z" fill="url(#paint0_linear_343_33)"/>
<path d="M178.343 13.2155C179.447 12.939 180.117 11.8203 179.84 10.717C179.564 9.61367 178.445 8.94345 177.342 9.22002C176.238 9.49659 175.568 10.6152 175.845 11.7185C176.121 12.8219 177.24 13.4921 178.343 13.2155Z" fill="url(#paint1_linear_343_33)"/>
<path d="M179.294 6.08671C180.949 5.67186 181.955 3.99391 181.54 2.33892C181.125 0.683922 179.447 -0.32141 177.792 0.0934441C176.137 0.508299 175.132 2.18624 175.547 3.84124C175.961 5.49623 177.639 6.50156 179.294 6.08671Z" fill="url(#paint2_linear_343_33)"/>
<defs>
<linearGradient id="paint0_linear_343_33" x1="181.666" y1="-3.24757e-05" x2="173.821" y2="6.05603" gradientUnits="userSpaceOnUse">
<stop stop-color="#D3FFA5"/>
<stop offset="1" stop-color="#00E2A9"/>
</linearGradient>
<linearGradient id="paint1_linear_343_33" x1="181.666" y1="-3.24757e-05" x2="173.821" y2="6.05603" gradientUnits="userSpaceOnUse">
<stop stop-color="#D3FFA5"/>
<stop offset="1" stop-color="#00E2A9"/>
</linearGradient>
<linearGradient id="paint2_linear_343_33" x1="181.666" y1="-3.24757e-05" x2="173.821" y2="6.05603" gradientUnits="userSpaceOnUse">
<stop stop-color="#D3FFA5"/>
<stop offset="1" stop-color="#00E2A9"/>
</linearGradient>
</defs>
</svg>
