<svg width="76" height="76" viewBox="0 0 76 76" fill="none" xmlns="http://www.w3.org/2000/svg">
<path d="M4.23244 4.225C-2.58802 11.0413 -0.911212 24.0537 7.43517 37.9833C-0.764404 51.6532 -2.67602 64.8498 4.23244 71.7588C11.0529 78.5835 24.0687 76.9025 37.9908 68.5561C51.6607 76.7557 64.8573 78.6673 71.7663 71.7588C78.5867 64.9426 76.9141 51.9301 68.5635 38.0005C76.7631 24.3306 78.6747 11.134 71.7663 4.225C67.2892 -0.252106 60.1 -1.09046 51.6199 1.32833C50.1946 1.73077 49.3687 3.21892 49.7753 4.64418C50.182 6.06525 51.6659 6.89116 53.0912 6.48443C59.8864 4.5477 65.1138 5.15554 67.9727 8.01872C74.9231 14.9691 67.9601 34.588 51.2797 51.2724C50.0011 52.5509 48.6932 53.7833 47.3644 54.9655C46.2577 55.9507 46.1613 57.6442 47.1464 58.7509C48.1315 59.8575 49.8251 59.9582 50.9318 58.9731C52.3403 57.7238 53.7195 56.4201 55.0735 55.0661C58.9595 51.1801 62.3802 47.1223 65.2685 43.0392C71.3385 54.14 72.2608 63.6761 67.9723 67.9655C61.0219 74.9159 41.4031 67.9529 24.7187 51.2725C23.4401 49.9939 22.2077 48.686 21.0255 47.3572C20.0404 46.2505 18.3426 46.1499 17.236 47.135C16.1293 48.1201 16.0329 49.8179 17.018 50.9245C18.2673 52.3289 19.5709 53.7123 20.9249 55.0663C24.811 58.9523 28.8688 62.373 32.9518 65.2613C21.864 71.3229 12.3182 72.2578 8.02558 67.9651C1.07516 61.0147 8.03816 41.3959 24.7186 24.7115C26.0893 23.3407 27.4895 22.0286 28.9105 20.771L31.1784 18.8846C33.8194 16.6837 37.6174 16.558 40.3966 18.5785L42.8532 20.3602C43.5994 20.901 44.6432 20.7333 45.184 19.9871C45.5822 19.4338 45.6074 18.696 45.2427 18.1174L43.5491 15.4429C41.7885 12.6594 42.0443 9.0543 44.1779 6.5474L46.1356 4.25438C46.7644 3.51659 46.6764 2.40566 45.9386 1.77689C45.402 1.31996 44.6475 1.22774 44.0186 1.53794L39.6127 3.71774C37.1772 4.92505 34.2804 4.71963 32.0377 3.18116L28.8015 0.963589C28.026 0.431206 26.9697 0.628227 26.4414 1.40376C26.0558 1.96549 26.0432 2.70324 26.4079 3.2776L27.9757 5.73835C29.8537 8.68116 29.4555 12.5294 27.0157 15.0236L25.1335 16.952C23.7041 18.218 22.2997 19.5427 20.9247 20.9176C17.0387 24.8036 13.618 28.8615 10.7297 32.9445C4.66386 21.8481 3.73741 12.3077 8.02586 8.01827C10.2812 5.76292 13.9911 4.89517 18.8744 5.60785C20.3374 5.81745 21.6998 4.80298 21.9136 3.33576C22.1274 1.86854 21.1087 0.510351 19.6415 0.296578C13.2235 -0.634054 7.83288 0.619813 4.23244 4.225ZM50.2613 19.9661C49.2258 21.0309 49.251 22.7286 50.3158 23.7599C50.6385 24.0743 50.9613 24.3929 51.2799 24.7115C53.3047 26.7362 55.2121 28.8322 56.9853 30.9702C57.9327 32.1104 59.622 32.2655 60.7622 31.3223C61.9025 30.3749 62.0617 28.6814 61.1144 27.5411C59.2363 25.2774 57.2158 23.0598 55.0737 20.9177C54.7341 20.5781 54.3946 20.2428 54.055 19.9116C52.9902 18.8804 51.2926 18.9055 50.2613 19.9661Z" fill="url(#paint0_linear_569_3)"/>
<defs>
<linearGradient id="paint0_linear_569_3" x1="76.1939" y1="-9.43154e-05" x2="31.062" y2="35.5722" gradientUnits="userSpaceOnUse">
<stop stop-color="#D3FFA5"/>
<stop offset="1" stop-color="#00E2A9"/>
</linearGradient>
</defs>
</svg>
